<mxfile host="65bd71144e">
    <diagram id="KHaMlA-1QjlB2q9Q3m2N" name="Page-1">
        <mxGraphModel dx="3939" dy="1992" grid="1" gridSize="10" guides="1" tooltips="1" connect="1" arrows="1" fold="1" page="1" pageScale="1" pageWidth="827" pageHeight="1169" math="0" shadow="0">
            <root>
                <mxCell id="0"/>
                <mxCell id="1" parent="0"/>
                <mxCell id="AoSfqsB_OiCot_QgGZxy-60" value="" style="rounded=0;whiteSpace=wrap;html=1;" parent="1" vertex="1">
                    <mxGeometry x="-480" y="10" width="1780" height="680" as="geometry"/>
                </mxCell>
                <mxCell id="2" value="Abstract Window" style="swimlane;fontStyle=1;align=center;verticalAlign=top;childLayout=stackLayout;horizontal=1;startSize=26;horizontalStack=0;resizeParent=1;resizeParentMax=0;resizeLast=0;collapsible=1;marginBottom=0;whiteSpace=wrap;html=1;" parent="1" vertex="1">
                    <mxGeometry x="310" y="40" width="160" height="160" as="geometry"/>
                </mxCell>
                <mxCell id="3" value="&lt;span style=&quot;color: rgb(0, 0, 0); font-family: Helvetica; font-size: 12px; font-style: normal; font-variant-ligatures: normal; font-variant-caps: normal; font-weight: 400; letter-spacing: normal; orphans: 2; text-align: left; text-indent: 0px; text-transform: none; widows: 2; word-spacing: 0px; -webkit-text-stroke-width: 0px; white-space: normal; background-color: rgb(251, 251, 251); text-decoration-thickness: initial; text-decoration-style: initial; text-decoration-color: initial; float: none; display: inline !important;&quot;&gt;# title: tk.Label&amp;nbsp;&lt;br&gt;&lt;span style=&quot;color: rgb(0, 0, 0);&quot;&gt;# text: tk.Text&lt;/span&gt;&lt;br&gt;&lt;/span&gt;&lt;div&gt;# master: tk.Tk&lt;/div&gt;" style="text;strokeColor=none;fillColor=none;align=left;verticalAlign=top;spacingLeft=4;spacingRight=4;overflow=hidden;rotatable=0;points=[[0,0.5],[1,0.5]];portConstraint=eastwest;whiteSpace=wrap;html=1;" parent="2" vertex="1">
                    <mxGeometry y="26" width="160" height="54" as="geometry"/>
                </mxCell>
                <mxCell id="4" value="" style="line;strokeWidth=1;fillColor=none;align=left;verticalAlign=middle;spacingTop=-1;spacingLeft=3;spacingRight=3;rotatable=0;labelPosition=right;points=[];portConstraint=eastwest;strokeColor=inherit;" parent="2" vertex="1">
                    <mxGeometry y="80" width="160" height="8" as="geometry"/>
                </mxCell>
                <mxCell id="5" value="&lt;span style=&quot;scrollbar-color: light-dark(#e2e2e2, #4b4b4b)&lt;br/&gt;&#x9;&#x9;&#x9;&#x9;&#x9;light-dark(#fbfbfb, var(--dark-panel-color)); background-color: rgb(251, 251, 251); float: none; color: rgb(0, 0, 0); display: inline !important;&quot;&gt;# close_windows()&lt;br style=&quot;scrollbar-color: light-dark(#e2e2e2, #4b4b4b)&lt;br/&gt;&#x9;&#x9;&#x9;&#x9;&#x9;light-dark(#fbfbfb, var(--dark-panel-color));&quot;&gt;&lt;span style=&quot;scrollbar-color: light-dark(#e2e2e2, #4b4b4b)&lt;br/&gt;&#x9;&#x9;&#x9;&#x9;&#x9;light-dark(#fbfbfb, var(--dark-panel-color)); color: rgb(0, 0, 0);&quot;&gt;# set_next_window(str)&lt;/span&gt;&lt;br style=&quot;scrollbar-color: light-dark(#e2e2e2, #4b4b4b)&lt;br/&gt;&#x9;&#x9;&#x9;&#x9;&#x9;light-dark(#fbfbfb, var(--dark-panel-color));&quot;&gt;&lt;/span&gt;&lt;div style=&quot;scrollbar-color: light-dark(#e2e2e2, #4b4b4b)&lt;br/&gt;&#x9;&#x9;&#x9;&#x9;&#x9;light-dark(#fbfbfb, var(--dark-panel-color));&quot;&gt;&lt;span style=&quot;scrollbar-color: light-dark(#e2e2e2, #4b4b4b)&lt;br/&gt;&#x9;&#x9;&#x9;&#x9;&#x9;light-dark(#fbfbfb, var(--dark-panel-color)); background-color: rgb(251, 251, 251); float: none; color: rgb(0, 0, 0); display: inline !important;&quot;&gt;&lt;span style=&quot;scrollbar-color: light-dark(#e2e2e2, #4b4b4b)&lt;br/&gt;&#x9;&#x9;&#x9;&#x9;&#x9;light-dark(#fbfbfb, var(--dark-panel-color)); color: rgb(0, 0, 0);&quot;&gt;&lt;span style=&quot;scrollbar-color: light-dark(#e2e2e2, #4b4b4b)&lt;br/&gt;&#x9;&#x9;&#x9;&#x9;&#x9;light-dark(#fbfbfb, var(--dark-panel-color)); color: rgb(0, 0, 0);&quot;&gt;# process_text(): str&lt;/span&gt;&lt;br style=&quot;scrollbar-color: light-dark(#e2e2e2, #4b4b4b)&lt;br/&gt;&#x9;&#x9;&#x9;&#x9;&#x9;light-dark(#fbfbfb, var(--dark-panel-color));&quot;&gt;&lt;/span&gt;&lt;/span&gt;&lt;/div&gt;&lt;div style=&quot;scrollbar-color: light-dark(#e2e2e2, #4b4b4b)&lt;br/&gt;&#x9;&#x9;&#x9;&#x9;&#x9;light-dark(#fbfbfb, var(--dark-panel-color));&quot;&gt;&lt;span style=&quot;scrollbar-color: light-dark(#e2e2e2, #4b4b4b)&lt;br/&gt;&#x9;&#x9;&#x9;&#x9;&#x9;light-dark(#fbfbfb, var(--dark-panel-color)); background-color: rgb(251, 251, 251); float: none; color: rgb(0, 0, 0); display: inline !important;&quot;&gt;&lt;span style=&quot;scrollbar-color: light-dark(#e2e2e2, #4b4b4b)&lt;br/&gt;&#x9;&#x9;&#x9;&#x9;&#x9;light-dark(#fbfbfb, var(--dark-panel-color)); color: rgb(0, 0, 0);&quot;&gt;&lt;span style=&quot;scrollbar-color: light-dark(#e2e2e2, #4b4b4b)&lt;br/&gt;&#x9;&#x9;&#x9;&#x9;&#x9;light-dark(#fbfbfb, var(--dark-panel-color)); color: rgb(0, 0, 0);&quot;&gt;# build_window()&lt;/span&gt;&lt;/span&gt;&lt;/span&gt;&lt;/div&gt;" style="text;strokeColor=none;fillColor=none;align=left;verticalAlign=top;spacingLeft=4;spacingRight=4;overflow=hidden;rotatable=0;points=[[0,0.5],[1,0.5]];portConstraint=eastwest;whiteSpace=wrap;html=1;" parent="2" vertex="1">
                    <mxGeometry y="88" width="160" height="72" as="geometry"/>
                </mxCell>
                <mxCell id="10" value="Main Window" style="swimlane;fontStyle=1;align=center;verticalAlign=top;childLayout=stackLayout;horizontal=1;startSize=26;horizontalStack=0;resizeParent=1;resizeParentMax=0;resizeLast=0;collapsible=1;marginBottom=0;whiteSpace=wrap;html=1;" parent="1" vertex="1">
                    <mxGeometry x="295" y="330" width="190" height="164" as="geometry"/>
                </mxCell>
                <mxCell id="11" value="- button1: tk.Button&lt;div&gt;&lt;span style=&quot;color: rgb(0, 0, 0);&quot;&gt;- button2: tk.Button&lt;/span&gt;&lt;br&gt;&lt;/div&gt;&lt;div&gt;&lt;span style=&quot;color: rgb(0, 0, 0);&quot;&gt;- button3: tk.Button&lt;/span&gt;&lt;span style=&quot;color: rgb(0, 0, 0);&quot;&gt;&lt;br&gt;&lt;/span&gt;&lt;/div&gt;&lt;div&gt;&lt;span style=&quot;color: rgb(0, 0, 0);&quot;&gt;- button4: tk.Button&lt;/span&gt;&lt;span style=&quot;color: rgb(0, 0, 0);&quot;&gt;&lt;br&gt;&lt;/span&gt;&lt;/div&gt;&lt;div&gt;&lt;span style=&quot;color: rgb(0, 0, 0);&quot;&gt;- button5: tk.Button&lt;/span&gt;&lt;span style=&quot;color: rgb(0, 0, 0);&quot;&gt;&lt;br&gt;&lt;/span&gt;&lt;/div&gt;&lt;div&gt;&lt;span style=&quot;color: rgb(0, 0, 0);&quot;&gt;- button6: tk.Button&lt;/span&gt;&lt;span style=&quot;color: rgb(0, 0, 0);&quot;&gt;&lt;br&gt;&lt;/span&gt;&lt;/div&gt;&lt;div&gt;&lt;span style=&quot;color: rgb(0, 0, 0);&quot;&gt;- button7: tk.Button&lt;/span&gt;&lt;span style=&quot;color: rgb(0, 0, 0);&quot;&gt;&lt;br&gt;&lt;/span&gt;&lt;/div&gt;" style="text;strokeColor=none;fillColor=none;align=left;verticalAlign=top;spacingLeft=4;spacingRight=4;overflow=hidden;rotatable=0;points=[[0,0.5],[1,0.5]];portConstraint=eastwest;whiteSpace=wrap;html=1;" parent="10" vertex="1">
                    <mxGeometry y="26" width="190" height="104" as="geometry"/>
                </mxCell>
                <mxCell id="12" value="" style="line;strokeWidth=1;fillColor=none;align=left;verticalAlign=middle;spacingTop=-1;spacingLeft=3;spacingRight=3;rotatable=0;labelPosition=right;points=[];portConstraint=eastwest;strokeColor=inherit;" parent="10" vertex="1">
                    <mxGeometry y="130" width="190" height="8" as="geometry"/>
                </mxCell>
                <mxCell id="13" value="- build_next_window&lt;span style=&quot;background-color: transparent;&quot;&gt;(str)&lt;/span&gt;" style="text;strokeColor=none;fillColor=none;align=left;verticalAlign=top;spacingLeft=4;spacingRight=4;overflow=hidden;rotatable=0;points=[[0,0.5],[1,0.5]];portConstraint=eastwest;whiteSpace=wrap;html=1;" parent="10" vertex="1">
                    <mxGeometry y="138" width="190" height="26" as="geometry"/>
                </mxCell>
                <mxCell id="19" value="" style="endArrow=diamondThin;html=1;endFill=1;strokeWidth=2;endSize=9;exitX=0.5;exitY=0;exitDx=0;exitDy=0;entryX=1.022;entryY=1.183;entryDx=0;entryDy=0;entryPerimeter=0;" parent="1" target="13" edge="1">
                    <mxGeometry width="50" height="50" relative="1" as="geometry">
                        <mxPoint x="1080" y="660" as="sourcePoint"/>
                        <mxPoint x="854.3600000000001" y="530" as="targetPoint"/>
                        <Array as="points"/>
                    </mxGeometry>
                </mxCell>
                <mxCell id="20" value="" style="endArrow=block;html=1;endFill=0;strokeWidth=2;endSize=9;exitX=0.5;exitY=0;exitDx=0;exitDy=0;entryX=0.496;entryY=1.02;entryDx=0;entryDy=0;entryPerimeter=0;" parent="1" source="10" target="5" edge="1">
                    <mxGeometry width="50" height="50" relative="1" as="geometry">
                        <mxPoint x="596" y="370" as="sourcePoint"/>
                        <mxPoint x="370" y="280" as="targetPoint"/>
                        <Array as="points"/>
                    </mxGeometry>
                </mxCell>
                <mxCell id="21" value="" style="endArrow=block;html=1;endFill=0;strokeWidth=2;endSize=0;exitX=0.5;exitY=0;exitDx=0;exitDy=0;" parent="1" source="AoSfqsB_OiCot_QgGZxy-28" edge="1">
                    <mxGeometry width="50" height="50" relative="1" as="geometry">
                        <mxPoint x="60.64" y="142.95" as="sourcePoint"/>
                        <mxPoint x="390" y="270" as="targetPoint"/>
                        <Array as="points">
                            <mxPoint x="160" y="270"/>
                        </Array>
                    </mxGeometry>
                </mxCell>
                <mxCell id="22" value="List All Vehicles Window" style="swimlane;fontStyle=1;align=center;verticalAlign=top;childLayout=stackLayout;horizontal=1;startSize=26;horizontalStack=0;resizeParent=1;resizeParentMax=0;resizeLast=0;collapsible=1;marginBottom=0;whiteSpace=wrap;html=1;" parent="1" vertex="1">
                    <mxGeometry x="-450" y="520" width="190" height="58" as="geometry"/>
                </mxCell>
                <mxCell id="23" value="&lt;div&gt;&lt;span style=&quot;color: rgb(0, 0, 0);&quot;&gt;- quit button: tk.Button&lt;/span&gt;&lt;/div&gt;" style="text;strokeColor=none;fillColor=none;align=left;verticalAlign=top;spacingLeft=4;spacingRight=4;overflow=hidden;rotatable=0;points=[[0,0.5],[1,0.5]];portConstraint=eastwest;whiteSpace=wrap;html=1;" parent="22" vertex="1">
                    <mxGeometry y="26" width="190" height="24" as="geometry"/>
                </mxCell>
                <mxCell id="24" value="" style="line;strokeWidth=1;fillColor=none;align=left;verticalAlign=middle;spacingTop=-1;spacingLeft=3;spacingRight=3;rotatable=0;labelPosition=right;points=[];portConstraint=eastwest;strokeColor=inherit;" parent="22" vertex="1">
                    <mxGeometry y="50" width="190" height="8" as="geometry"/>
                </mxCell>
                <mxCell id="AoSfqsB_OiCot_QgGZxy-25" value="Vehicles with Tax Due Window" style="swimlane;fontStyle=1;align=center;verticalAlign=top;childLayout=stackLayout;horizontal=1;startSize=26;horizontalStack=0;resizeParent=1;resizeParentMax=0;resizeLast=0;collapsible=1;marginBottom=0;whiteSpace=wrap;html=1;" parent="1" vertex="1">
                    <mxGeometry x="-170" y="420" width="190" height="58" as="geometry"/>
                </mxCell>
                <mxCell id="AoSfqsB_OiCot_QgGZxy-26" value="&lt;div&gt;&lt;span style=&quot;color: rgb(0, 0, 0);&quot;&gt;- quit button: tk.Button&lt;/span&gt;&lt;/div&gt;" style="text;strokeColor=none;fillColor=none;align=left;verticalAlign=top;spacingLeft=4;spacingRight=4;overflow=hidden;rotatable=0;points=[[0,0.5],[1,0.5]];portConstraint=eastwest;whiteSpace=wrap;html=1;" parent="AoSfqsB_OiCot_QgGZxy-25" vertex="1">
                    <mxGeometry y="26" width="190" height="24" as="geometry"/>
                </mxCell>
                <mxCell id="AoSfqsB_OiCot_QgGZxy-27" value="" style="line;strokeWidth=1;fillColor=none;align=left;verticalAlign=middle;spacingTop=-1;spacingLeft=3;spacingRight=3;rotatable=0;labelPosition=right;points=[];portConstraint=eastwest;strokeColor=inherit;" parent="AoSfqsB_OiCot_QgGZxy-25" vertex="1">
                    <mxGeometry y="50" width="190" height="8" as="geometry"/>
                </mxCell>
                <mxCell id="AoSfqsB_OiCot_QgGZxy-28" value="Vehicles with Service Due Window" style="swimlane;fontStyle=1;align=center;verticalAlign=top;childLayout=stackLayout;horizontal=1;startSize=26;horizontalStack=0;resizeParent=1;resizeParentMax=0;resizeLast=0;collapsible=1;marginBottom=0;whiteSpace=wrap;html=1;" parent="1" vertex="1">
                    <mxGeometry x="60" y="340" width="200" height="58" as="geometry"/>
                </mxCell>
                <mxCell id="AoSfqsB_OiCot_QgGZxy-29" value="&lt;div&gt;&lt;span style=&quot;color: rgb(0, 0, 0);&quot;&gt;- quit button: tk.Button&lt;/span&gt;&lt;/div&gt;" style="text;strokeColor=none;fillColor=none;align=left;verticalAlign=top;spacingLeft=4;spacingRight=4;overflow=hidden;rotatable=0;points=[[0,0.5],[1,0.5]];portConstraint=eastwest;whiteSpace=wrap;html=1;" parent="AoSfqsB_OiCot_QgGZxy-28" vertex="1">
                    <mxGeometry y="26" width="200" height="24" as="geometry"/>
                </mxCell>
                <mxCell id="AoSfqsB_OiCot_QgGZxy-30" value="" style="line;strokeWidth=1;fillColor=none;align=left;verticalAlign=middle;spacingTop=-1;spacingLeft=3;spacingRight=3;rotatable=0;labelPosition=right;points=[];portConstraint=eastwest;strokeColor=inherit;" parent="AoSfqsB_OiCot_QgGZxy-28" vertex="1">
                    <mxGeometry y="50" width="200" height="8" as="geometry"/>
                </mxCell>
                <mxCell id="AoSfqsB_OiCot_QgGZxy-34" value="Search by Number Plate Window" style="swimlane;fontStyle=1;align=center;verticalAlign=top;childLayout=stackLayout;horizontal=1;startSize=26;horizontalStack=0;resizeParent=1;resizeParentMax=0;resizeLast=0;collapsible=1;marginBottom=0;whiteSpace=wrap;html=1;" parent="1" vertex="1">
                    <mxGeometry x="520" y="340" width="190" height="104" as="geometry"/>
                </mxCell>
                <mxCell id="AoSfqsB_OiCot_QgGZxy-35" value="&lt;div&gt;&lt;span style=&quot;color: rgb(0, 0, 0);&quot;&gt;- quit button: tk.Button&lt;/span&gt;&lt;/div&gt;&lt;div&gt;&lt;span style=&quot;color: rgb(0, 0, 0);&quot;&gt;- enter button: tk.Button&lt;/span&gt;&lt;/div&gt;" style="text;strokeColor=none;fillColor=none;align=left;verticalAlign=top;spacingLeft=4;spacingRight=4;overflow=hidden;rotatable=0;points=[[0,0.5],[1,0.5]];portConstraint=eastwest;whiteSpace=wrap;html=1;" parent="AoSfqsB_OiCot_QgGZxy-34" vertex="1">
                    <mxGeometry y="26" width="190" height="44" as="geometry"/>
                </mxCell>
                <mxCell id="AoSfqsB_OiCot_QgGZxy-36" value="" style="line;strokeWidth=1;fillColor=none;align=left;verticalAlign=middle;spacingTop=-1;spacingLeft=3;spacingRight=3;rotatable=0;labelPosition=right;points=[];portConstraint=eastwest;strokeColor=inherit;" parent="AoSfqsB_OiCot_QgGZxy-34" vertex="1">
                    <mxGeometry y="70" width="190" height="8" as="geometry"/>
                </mxCell>
                <mxCell id="AoSfqsB_OiCot_QgGZxy-37" value="- submit_text()" style="text;strokeColor=none;fillColor=none;align=left;verticalAlign=top;spacingLeft=4;spacingRight=4;overflow=hidden;rotatable=0;points=[[0,0.5],[1,0.5]];portConstraint=eastwest;whiteSpace=wrap;html=1;" parent="AoSfqsB_OiCot_QgGZxy-34" vertex="1">
                    <mxGeometry y="78" width="190" height="26" as="geometry"/>
                </mxCell>
                <mxCell id="AoSfqsB_OiCot_QgGZxy-38" value="Insert Vehicle Window" style="swimlane;fontStyle=1;align=center;verticalAlign=top;childLayout=stackLayout;horizontal=1;startSize=26;horizontalStack=0;resizeParent=1;resizeParentMax=0;resizeLast=0;collapsible=1;marginBottom=0;whiteSpace=wrap;html=1;" parent="1" vertex="1">
                    <mxGeometry x="790" y="420" width="190" height="130" as="geometry"/>
                </mxCell>
                <mxCell id="AoSfqsB_OiCot_QgGZxy-39" value="&lt;div&gt;&lt;span style=&quot;color: rgb(0, 0, 0);&quot;&gt;- quit button: tk.Button&lt;/span&gt;&lt;/div&gt;&lt;div&gt;&lt;span style=&quot;color: rgb(0, 0, 0);&quot;&gt;- enter button: tk.Button&lt;/span&gt;&lt;/div&gt;&lt;div&gt;&lt;span style=&quot;color: rgb(0, 0, 0);&quot;&gt;- option_menu: tk.OptionMenu&lt;/span&gt;&lt;/div&gt;" style="text;strokeColor=none;fillColor=none;align=left;verticalAlign=top;spacingLeft=4;spacingRight=4;overflow=hidden;rotatable=0;points=[[0,0.5],[1,0.5]];portConstraint=eastwest;whiteSpace=wrap;html=1;" parent="AoSfqsB_OiCot_QgGZxy-38" vertex="1">
                    <mxGeometry y="26" width="190" height="54" as="geometry"/>
                </mxCell>
                <mxCell id="AoSfqsB_OiCot_QgGZxy-40" value="" style="line;strokeWidth=1;fillColor=none;align=left;verticalAlign=middle;spacingTop=-1;spacingLeft=3;spacingRight=3;rotatable=0;labelPosition=right;points=[];portConstraint=eastwest;strokeColor=inherit;" parent="AoSfqsB_OiCot_QgGZxy-38" vertex="1">
                    <mxGeometry y="80" width="190" height="8" as="geometry"/>
                </mxCell>
                <mxCell id="AoSfqsB_OiCot_QgGZxy-41" value="- submit_type()&lt;div&gt;&lt;span style=&quot;color: rgb(0, 0, 0);&quot;&gt;- insert_text()&lt;/span&gt;&lt;br&gt;&lt;/div&gt;" style="text;strokeColor=none;fillColor=none;align=left;verticalAlign=top;spacingLeft=4;spacingRight=4;overflow=hidden;rotatable=0;points=[[0,0.5],[1,0.5]];portConstraint=eastwest;whiteSpace=wrap;html=1;" parent="AoSfqsB_OiCot_QgGZxy-38" vertex="1">
                    <mxGeometry y="88" width="190" height="42" as="geometry"/>
                </mxCell>
                <mxCell id="AoSfqsB_OiCot_QgGZxy-42" value="Update Vehicle Window" style="swimlane;fontStyle=1;align=center;verticalAlign=top;childLayout=stackLayout;horizontal=1;startSize=26;horizontalStack=0;resizeParent=1;resizeParentMax=0;resizeLast=0;collapsible=1;marginBottom=0;whiteSpace=wrap;html=1;" parent="1" vertex="1">
                    <mxGeometry x="1080" y="550" width="190" height="120" as="geometry"/>
                </mxCell>
                <mxCell id="AoSfqsB_OiCot_QgGZxy-43" value="&lt;div&gt;&lt;span style=&quot;color: rgb(0, 0, 0);&quot;&gt;- quit button: tk.Button&lt;/span&gt;&lt;/div&gt;&lt;div&gt;&lt;span style=&quot;color: rgb(0, 0, 0);&quot;&gt;- enter button: tk.Button&lt;/span&gt;&lt;/div&gt;" style="text;strokeColor=none;fillColor=none;align=left;verticalAlign=top;spacingLeft=4;spacingRight=4;overflow=hidden;rotatable=0;points=[[0,0.5],[1,0.5]];portConstraint=eastwest;whiteSpace=wrap;html=1;" parent="AoSfqsB_OiCot_QgGZxy-42" vertex="1">
                    <mxGeometry y="26" width="190" height="44" as="geometry"/>
                </mxCell>
                <mxCell id="AoSfqsB_OiCot_QgGZxy-44" value="" style="line;strokeWidth=1;fillColor=none;align=left;verticalAlign=middle;spacingTop=-1;spacingLeft=3;spacingRight=3;rotatable=0;labelPosition=right;points=[];portConstraint=eastwest;strokeColor=inherit;" parent="AoSfqsB_OiCot_QgGZxy-42" vertex="1">
                    <mxGeometry y="70" width="190" height="8" as="geometry"/>
                </mxCell>
                <mxCell id="AoSfqsB_OiCot_QgGZxy-45" value="- submit_text()&lt;div&gt;- submit_info()&lt;/div&gt;" style="text;strokeColor=none;fillColor=none;align=left;verticalAlign=top;spacingLeft=4;spacingRight=4;overflow=hidden;rotatable=0;points=[[0,0.5],[1,0.5]];portConstraint=eastwest;whiteSpace=wrap;html=1;" parent="AoSfqsB_OiCot_QgGZxy-42" vertex="1">
                    <mxGeometry y="78" width="190" height="42" as="geometry"/>
                </mxCell>
                <mxCell id="AoSfqsB_OiCot_QgGZxy-46" value="Remove Vehicle Window" style="swimlane;fontStyle=1;align=center;verticalAlign=top;childLayout=stackLayout;horizontal=1;startSize=26;horizontalStack=0;resizeParent=1;resizeParentMax=0;resizeLast=0;collapsible=1;marginBottom=0;whiteSpace=wrap;html=1;" parent="1" vertex="1">
                    <mxGeometry x="290" y="570" width="190" height="110" as="geometry"/>
                </mxCell>
                <mxCell id="AoSfqsB_OiCot_QgGZxy-47" value="&lt;div&gt;&lt;span style=&quot;color: rgb(0, 0, 0);&quot;&gt;- quit button: tk.Button&lt;/span&gt;&lt;/div&gt;&lt;div&gt;&lt;span style=&quot;color: rgb(0, 0, 0);&quot;&gt;- enter button: tk.Button&lt;/span&gt;&lt;/div&gt;" style="text;strokeColor=none;fillColor=none;align=left;verticalAlign=top;spacingLeft=4;spacingRight=4;overflow=hidden;rotatable=0;points=[[0,0.5],[1,0.5]];portConstraint=eastwest;whiteSpace=wrap;html=1;" parent="AoSfqsB_OiCot_QgGZxy-46" vertex="1">
                    <mxGeometry y="26" width="190" height="44" as="geometry"/>
                </mxCell>
                <mxCell id="AoSfqsB_OiCot_QgGZxy-48" value="" style="line;strokeWidth=1;fillColor=none;align=left;verticalAlign=middle;spacingTop=-1;spacingLeft=3;spacingRight=3;rotatable=0;labelPosition=right;points=[];portConstraint=eastwest;strokeColor=inherit;" parent="AoSfqsB_OiCot_QgGZxy-46" vertex="1">
                    <mxGeometry y="70" width="190" height="8" as="geometry"/>
                </mxCell>
                <mxCell id="AoSfqsB_OiCot_QgGZxy-49" value="- submit_text()" style="text;strokeColor=none;fillColor=none;align=left;verticalAlign=top;spacingLeft=4;spacingRight=4;overflow=hidden;rotatable=0;points=[[0,0.5],[1,0.5]];portConstraint=eastwest;whiteSpace=wrap;html=1;" parent="AoSfqsB_OiCot_QgGZxy-46" vertex="1">
                    <mxGeometry y="78" width="190" height="32" as="geometry"/>
                </mxCell>
                <mxCell id="AoSfqsB_OiCot_QgGZxy-50" value="" style="endArrow=block;html=1;endFill=0;strokeWidth=2;endSize=0;exitX=0.5;exitY=0;exitDx=0;exitDy=0;" parent="1" source="AoSfqsB_OiCot_QgGZxy-34" edge="1">
                    <mxGeometry width="50" height="50" relative="1" as="geometry">
                        <mxPoint x="170" y="350" as="sourcePoint"/>
                        <mxPoint x="390" y="270" as="targetPoint"/>
                        <Array as="points">
                            <mxPoint x="615" y="270"/>
                        </Array>
                    </mxGeometry>
                </mxCell>
                <mxCell id="AoSfqsB_OiCot_QgGZxy-51" value="" style="endArrow=block;html=1;endFill=0;strokeWidth=2;endSize=0;exitX=0.5;exitY=0;exitDx=0;exitDy=0;" parent="1" edge="1">
                    <mxGeometry width="50" height="50" relative="1" as="geometry">
                        <mxPoint x="895" y="420" as="sourcePoint"/>
                        <mxPoint x="620" y="310" as="targetPoint"/>
                        <Array as="points">
                            <mxPoint x="895" y="310"/>
                        </Array>
                    </mxGeometry>
                </mxCell>
                <mxCell id="AoSfqsB_OiCot_QgGZxy-52" value="" style="endArrow=block;html=1;endFill=0;strokeWidth=2;endSize=0;exitX=0.589;exitY=0.033;exitDx=0;exitDy=0;exitPerimeter=0;" parent="1" source="AoSfqsB_OiCot_QgGZxy-42" edge="1">
                    <mxGeometry width="50" height="50" relative="1" as="geometry">
                        <mxPoint x="1195" y="550" as="sourcePoint"/>
                        <mxPoint x="900" y="380" as="targetPoint"/>
                        <Array as="points">
                            <mxPoint x="1190" y="380"/>
                        </Array>
                    </mxGeometry>
                </mxCell>
                <mxCell id="AoSfqsB_OiCot_QgGZxy-53" value="" style="endArrow=block;html=1;endFill=0;strokeWidth=2;endSize=0;" parent="1" edge="1">
                    <mxGeometry width="50" height="50" relative="1" as="geometry">
                        <mxPoint x="-100" y="418" as="sourcePoint"/>
                        <mxPoint x="160" y="300" as="targetPoint"/>
                        <Array as="points">
                            <mxPoint x="-100" y="300"/>
                        </Array>
                    </mxGeometry>
                </mxCell>
                <mxCell id="AoSfqsB_OiCot_QgGZxy-54" value="" style="endArrow=block;html=1;endFill=0;strokeWidth=2;endSize=0;" parent="1" edge="1">
                    <mxGeometry width="50" height="50" relative="1" as="geometry">
                        <mxPoint x="-380" y="520" as="sourcePoint"/>
                        <mxPoint x="-100" y="400" as="targetPoint"/>
                        <Array as="points">
                            <mxPoint x="-380" y="402"/>
                        </Array>
                    </mxGeometry>
                </mxCell>
                <mxCell id="AoSfqsB_OiCot_QgGZxy-55" value="" style="endArrow=diamondThin;html=1;endFill=1;strokeWidth=2;endSize=9;exitX=-0.013;exitY=0.903;exitDx=0;exitDy=0;exitPerimeter=0;entryX=1;entryY=0.43;entryDx=0;entryDy=0;entryPerimeter=0;" parent="1" source="AoSfqsB_OiCot_QgGZxy-35" target="11" edge="1">
                    <mxGeometry width="50" height="50" relative="1" as="geometry">
                        <mxPoint x="710" y="761" as="sourcePoint"/>
                        <mxPoint x="485" y="408" as="targetPoint"/>
                        <Array as="points"/>
                    </mxGeometry>
                </mxCell>
                <mxCell id="AoSfqsB_OiCot_QgGZxy-56" value="" style="endArrow=diamondThin;html=1;endFill=1;strokeWidth=2;endSize=9;exitX=-0.02;exitY=0.78;exitDx=0;exitDy=0;entryX=1.007;entryY=0.959;entryDx=0;entryDy=0;entryPerimeter=0;exitPerimeter=0;" parent="1" source="AoSfqsB_OiCot_QgGZxy-41" target="11" edge="1">
                    <mxGeometry width="50" height="50" relative="1" as="geometry">
                        <mxPoint x="1090" y="621" as="sourcePoint"/>
                        <mxPoint x="499" y="460" as="targetPoint"/>
                        <Array as="points"/>
                    </mxGeometry>
                </mxCell>
                <mxCell id="AoSfqsB_OiCot_QgGZxy-57" value="" style="endArrow=diamondThin;html=1;endFill=1;strokeWidth=2;endSize=9;exitX=0.967;exitY=0.406;exitDx=0;exitDy=0;entryX=-0.007;entryY=0.971;entryDx=0;entryDy=0;entryPerimeter=0;exitPerimeter=0;" parent="1" source="24" target="13" edge="1">
                    <mxGeometry width="50" height="50" relative="1" as="geometry">
                        <mxPoint x="680.5" y="711" as="sourcePoint"/>
                        <mxPoint x="89.5" y="550" as="targetPoint"/>
                        <Array as="points"/>
                    </mxGeometry>
                </mxCell>
                <mxCell id="AoSfqsB_OiCot_QgGZxy-58" value="" style="endArrow=diamondThin;html=1;endFill=1;strokeWidth=2;endSize=9;exitX=1;exitY=0.5;exitDx=0;exitDy=0;entryX=-0.007;entryY=0.815;entryDx=0;entryDy=0;entryPerimeter=0;" parent="1" source="AoSfqsB_OiCot_QgGZxy-26" target="11" edge="1">
                    <mxGeometry width="50" height="50" relative="1" as="geometry">
                        <mxPoint x="-256" y="583" as="sourcePoint"/>
                        <mxPoint x="304" y="503" as="targetPoint"/>
                        <Array as="points"/>
                    </mxGeometry>
                </mxCell>
                <mxCell id="AoSfqsB_OiCot_QgGZxy-59" value="" style="endArrow=diamondThin;html=1;endFill=1;strokeWidth=2;endSize=9;exitX=0.994;exitY=0.198;exitDx=0;exitDy=0;entryX=-0.007;entryY=0.106;entryDx=0;entryDy=0;entryPerimeter=0;exitPerimeter=0;" parent="1" source="AoSfqsB_OiCot_QgGZxy-29" target="11" edge="1">
                    <mxGeometry width="50" height="50" relative="1" as="geometry">
                        <mxPoint x="30" y="468" as="sourcePoint"/>
                        <mxPoint x="304" y="451" as="targetPoint"/>
                        <Array as="points"/>
                    </mxGeometry>
                </mxCell>
                <mxCell id="25" value="" style="endArrow=diamondThin;html=1;endFill=1;strokeWidth=2;endSize=9;exitX=0.5;exitY=0;exitDx=0;exitDy=0;entryX=0.457;entryY=0.894;entryDx=0;entryDy=0;entryPerimeter=0;" edge="1" parent="1" source="AoSfqsB_OiCot_QgGZxy-46" target="13">
                    <mxGeometry width="50" height="50" relative="1" as="geometry">
                        <mxPoint x="740" y="625" as="sourcePoint"/>
                        <mxPoint x="440" y="540" as="targetPoint"/>
                        <Array as="points"/>
                    </mxGeometry>
                </mxCell>
            </root>
        </mxGraphModel>
    </diagram>
    <diagram id="jBcp74M24OYkldKBjV6m" name="Page-2">
        <mxGraphModel dx="146" dy="498" grid="1" gridSize="10" guides="1" tooltips="1" connect="1" arrows="1" fold="1" page="1" pageScale="1" pageWidth="827" pageHeight="1169" math="0" shadow="0">
            <root>
                <mxCell id="0"/>
                <mxCell id="1" parent="0"/>
            </root>
        </mxGraphModel>
    </diagram>
</mxfile>